0
SECTION
2
HEADER
9
$INSUNITS
70
4
9
$ACADVER
1
AC1014
9
$HANDSEED
5
FFFF
0
ENDSEC
0
SECTION
2
TABLES
0
TABLE
2
VPORT
5
8
100
AcDbSymbolTable
0
ENDTAB
0
TABLE
2
LTYPE
5
5
100
AcDbSymbolTable
0
LTYPE
5
14
100
AcDbSymbolTableRecord
100
AcDbLinetypeTableRecord
2
BYBLOCK
70
0
0
LTYPE
5
15
100
AcDbSymbolTableRecord
100
AcDbLinetypeTableRecord
2
BYLAYER
70
0
0
ENDTAB
0
TABLE
2
LAYER
5
2
100
AcDbSymbolTable
70
2
0
LAYER
5
50
100
AcDbSymbolTableRecord
100
AcDbLayerTableRecord
2
0
70
0
6
CONTINUOUS
0
ENDTAB
0
TABLE
2
STYLE
5
3
100
AcDbSymbolTable
70
1
0
STYLE
5
11
100
AcDbSymbolTableRecord
100
AcDbTextStyleTableRecord
2
STANDARD
70
0
0
ENDTAB
0
TABLE
2
VIEW
5
6
100
AcDbSymbolTable
70
0
0
ENDTAB
0
TABLE
2
UCS
5
7
100
AcDbSymbolTable
70
0
0
ENDTAB
0
TABLE
2
APPID
5
9
100
AcDbSymbolTable
70
2
0
APPID
5
12
100
AcDbSymbolTableRecord
100
AcDbRegAppTableRecord
2
ACAD
70
0
0
ENDTAB
0
TABLE
2
DIMSTYLE
5
A
100
AcDbSymbolTable
70
1
0
ENDTAB
0
TABLE
2
BLOCK_RECORD
5
1
100
AcDbSymbolTable
70
1
0
BLOCK_RECORD
5
1F
100
AcDbSymbolTableRecord
100
AcDbBlockTableRecord
2
*MODEL_SPACE
0
BLOCK_RECORD
5
1B
100
AcDbSymbolTableRecord
100
AcDbBlockTableRecord
2
*PAPER_SPACE
0
ENDTAB
0
ENDSEC
0
SECTION
2
BLOCKS
0
BLOCK
5
20
100
AcDbEntity
100
AcDbBlockBegin
2
*MODEL_SPACE
0
ENDBLK
5
21
100
AcDbEntity
100
AcDbBlockEnd
0
BLOCK
5
1C
100
AcDbEntity
100
AcDbBlockBegin
2
*PAPER_SPACE
0
ENDBLK
5
1D
100
AcDbEntity
100
AcDbBlockEnd
0
ENDSEC
0
SECTION
2
ENTITIES
0
LINE
5
100
100
AcDbEntity
8
0
100
AcDbLine
10
0
20
-11.119999999999999
30
0
11
0
21
-0.059999999999999998
31
0
0
LINE
5
101
100
AcDbEntity
8
0
100
AcDbLine
10
0
20
11.120000000000001
30
0
11
0
21
0.059999999999999998
31
0
0
LINE
5
102
100
AcDbEntity
8
0
100
AcDbLine
10
23.940000000000005
20
14.180000000000001
30
0
11
0
21
14.180000000000001
31
0
0
LINE
5
103
100
AcDbEntity
8
0
100
AcDbLine
10
0
20
14.180000000000001
30
0
11
0
21
11.240000000000002
31
0
0
LINE
5
104
100
AcDbEntity
8
0
100
AcDbLine
10
23.940000000000005
20
-13.179999999999998
30
0
11
0
21
-13.179999999999998
31
0
0
LINE
5
105
100
AcDbEntity
8
0
100
AcDbLine
10
0
20
-13.179999999999998
30
0
11
0
21
-11.239999999999998
31
0
0
LINE
5
106
100
AcDbEntity
8
0
100
AcDbLine
10
1.1999999731779099
20
0
30
0
11
1.1999999731779099
21
0.059999999999999998
31
0
0
LINE
5
107
100
AcDbEntity
8
0
100
AcDbLine
10
1.1999999731779099
20
0.059999999999999998
30
0
11
0
21
0.059999999999999998
31
0
0
LINE
5
108
100
AcDbEntity
8
0
100
AcDbLine
10
1.2
20
0
30
0
11
1.2
21
-0.059999999999999998
31
0
0
LINE
5
109
100
AcDbEntity
8
0
100
AcDbLine
10
1.2
20
-0.059999999999999998
30
0
11
0
21
-0.059999999999999998
31
0
0
LINE
5
110
100
AcDbEntity
8
0
100
AcDbLine
10
1.2
20
11.180000000000001
30
0
11
1.2
21
11.120000000000001
31
0
0
LINE
5
111
100
AcDbEntity
8
0
100
AcDbLine
10
1.2
20
11.120000000000001
30
0
11
0
21
11.120000000000001
31
0
0
LINE
5
112
100
AcDbEntity
8
0
100
AcDbLine
10
1.2
20
11.180000000000001
30
0
11
1.2
21
11.240000000000002
31
0
0
LINE
5
113
100
AcDbEntity
8
0
100
AcDbLine
10
1.2
20
11.240000000000002
30
0
11
0
21
11.240000000000002
31
0
0
LINE
5
114
100
AcDbEntity
8
0
100
AcDbLine
10
1.2
20
-11.18
30
0
11
1.2
21
-11.239999999999998
31
0
0
LINE
5
115
100
AcDbEntity
8
0
100
AcDbLine
10
1.2
20
-11.239999999999998
30
0
11
0
21
-11.239999999999998
31
0
0
LINE
5
116
100
AcDbEntity
8
0
100
AcDbLine
10
1.2
20
-11.18
30
0
11
1.2
21
-11.119999999999999
31
0
0
LINE
5
117
100
AcDbEntity
8
0
100
AcDbLine
10
1.2
20
-11.119999999999999
30
0
11
0
21
-11.119999999999999
31
0
0
LINE
5
118
100
AcDbEntity
8
0
100
AcDbLine
10
24.060000000000002
20
14.180000000000001
30
0
11
47.940000000000005
21
14.180000000000001
31
0
0
LINE
5
119
100
AcDbEntity
8
0
100
AcDbLine
10
47.940000000000005
20
-13.179999999999996
30
0
11
24.060000000000002
21
-13.179999999999998
31
0
0
LINE
5
120
100
AcDbEntity
8
0
100
AcDbLine
10
48.060000000000009
20
14.180000000000001
30
0
11
72.000000000000014
21
14.180000000000001
31
0
0
LINE
5
121
100
AcDbEntity
8
0
100
AcDbLine
10
72.000000000000014
20
-13.179999999999996
30
0
11
48.060000000000009
21
-13.179999999999996
31
0
0
LINE
5
122
100
AcDbEntity
8
0
100
AcDbLine
10
22.800000000000004
20
11.120000000000001
30
0
11
25.200000000000003
21
11.120000000000001
31
0
0
LINE
5
123
100
AcDbEntity
8
0
100
AcDbLine
10
25.200000000000003
20
11.120000000000001
30
0
11
25.200000000000003
21
11.240000000000002
31
0
0
LINE
5
124
100
AcDbEntity
8
0
100
AcDbLine
10
22.800000000000004
20
11.240000000000002
30
0
11
22.800000000000004
21
11.120000000000001
31
0
0
LINE
5
125
100
AcDbEntity
8
0
100
AcDbLine
10
22.800000357627866
20
-11.119999999999999
30
0
11
25.200000357627871
21
-11.119999999999999
31
0
0
LINE
5
126
100
AcDbEntity
8
0
100
AcDbLine
10
25.200000357627871
20
-11.119999999999999
30
0
11
25.200000357627871
21
-11.239999999999998
31
0
0
LINE
5
127
100
AcDbEntity
8
0
100
AcDbLine
10
22.800000357627866
20
-11.239999999999998
30
0
11
22.800000357627866
21
-11.119999999999999
31
0
0
LINE
5
128
100
AcDbEntity
8
0
100
AcDbLine
10
23.940000000000005
20
-13.179999999999998
30
0
11
23.940000000000005
21
-11.239999999999998
31
0
0
LINE
5
129
100
AcDbEntity
8
0
100
AcDbLine
10
25.200000357627871
20
-11.239999999999998
30
0
11
24.060000000000002
21
-11.239999999999998
31
0
0
LINE
5
130
100
AcDbEntity
8
0
100
AcDbLine
10
23.940000000000005
20
-11.239999999999998
30
0
11
22.800000357627866
21
-11.239999999999998
31
0
0
LINE
5
131
100
AcDbEntity
8
0
100
AcDbLine
10
24.060000000000002
20
-13.179999999999998
30
0
11
24.060000000000002
21
-11.239999999999998
31
0
0
LINE
5
132
100
AcDbEntity
8
0
100
AcDbLine
10
23.940000000000005
20
14.180000000000001
30
0
11
23.940000000000005
21
11.240000000000002
31
0
0
LINE
5
133
100
AcDbEntity
8
0
100
AcDbLine
10
24.060000000000002
20
14.180000000000001
30
0
11
24.060000000000002
21
11.240000000000002
31
0
0
LINE
5
134
100
AcDbEntity
8
0
100
AcDbLine
10
25.200000000000003
20
11.240000000000002
30
0
11
24.060000000000002
21
11.240000000000002
31
0
0
LINE
5
135
100
AcDbEntity
8
0
100
AcDbLine
10
23.940000000000005
20
11.240000000000002
30
0
11
22.800000000000004
21
11.240000000000002
31
0
0
LWPOLYLINE
5
136
100
AcDbEntity
8
0
100
AcDbPolyline
90
4
70
1
43
0.0
10
22.80000127851963
20
-0.059999999999999998
10
25.199999436736107
20
-0.059999999999999998
10
25.199999436736107
20
0.059999999999999998
10
22.80000127851963
20
0.059999999999999998
0
LINE
5
137
100
AcDbEntity
8
0
100
AcDbLine
10
49.20000000000001
20
11.120000000000001
30
0
11
46.800000000000004
21
11.120000000000001
31
0
0
LINE
5
138
100
AcDbEntity
8
0
100
AcDbLine
10
46.800000000000004
20
11.120000000000001
30
0
11
46.800000000000004
21
11.240000000000002
31
0
0
LINE
5
139
100
AcDbEntity
8
0
100
AcDbLine
10
49.20000000000001
20
11.240000000000002
30
0
11
49.20000000000001
21
11.120000000000001
31
0
0
LINE
5
140
100
AcDbEntity
8
0
100
AcDbLine
10
49.20000000000001
20
-11.119999999999999
30
0
11
46.800000000000004
21
-11.119999999999999
31
0
0
LINE
5
141
100
AcDbEntity
8
0
100
AcDbLine
10
46.800000000000004
20
-11.119999999999999
30
0
11
46.800000000000004
21
-11.239999999999998
31
0
0
LINE
5
142
100
AcDbEntity
8
0
100
AcDbLine
10
49.20000000000001
20
-11.239999999999998
30
0
11
49.20000000000001
21
-11.119999999999999
31
0
0
LINE
5
143
100
AcDbEntity
8
0
100
AcDbLine
10
49.199998927116397
20
-0.059999999999999998
30
0
11
46.799998927116391
21
-0.059999999999999998
31
0
0
LINE
5
144
100
AcDbEntity
8
0
100
AcDbLine
10
46.799998927116391
20
-0.059999999999999998
30
0
11
46.799998927116391
21
0.059999999999999998
31
0
0
LINE
5
145
100
AcDbEntity
8
0
100
AcDbLine
10
46.799998927116391
20
0.059999999999999998
30
0
11
49.199998927116397
21
0.059999999999999998
31
0
0
LINE
5
146
100
AcDbEntity
8
0
100
AcDbLine
10
49.199998927116397
20
0.059999999999999998
30
0
11
49.199998927116397
21
-0.059999999999999998
31
0
0
LINE
5
147
100
AcDbEntity
8
0
100
AcDbLine
10
72.000000000000014
20
11.120000000000001
30
0
11
70.800000000000011
21
11.120000000000001
31
0
0
LINE
5
148
100
AcDbEntity
8
0
100
AcDbLine
10
70.800000000000011
20
11.120000000000001
30
0
11
70.800000000000011
21
11.240000000000002
31
0
0
LINE
5
149
100
AcDbEntity
8
0
100
AcDbLine
10
70.800000000000011
20
11.240000000000002
30
0
11
72.000000000000014
21
11.240000000000002
31
0
0
LINE
5
150
100
AcDbEntity
8
0
100
AcDbLine
10
72.000000000000014
20
-0.060000000000000053
30
0
11
70.800000000000011
21
-0.059999999999999998
31
0
0
LINE
5
151
100
AcDbEntity
8
0
100
AcDbLine
10
70.800000000000011
20
-0.059999999999999998
30
0
11
70.800000000000011
21
0.059999999999999998
31
0
0
LINE
5
152
100
AcDbEntity
8
0
100
AcDbLine
10
70.800000000000011
20
0.059999999999999998
30
0
11
72.000000000000014
21
0.060000000000002274
31
0
0
LINE
5
153
100
AcDbEntity
8
0
100
AcDbLine
10
72.000000000000014
20
-11.240000000000002
30
0
11
70.800000000000011
21
-11.239999999999998
31
0
0
LINE
5
154
100
AcDbEntity
8
0
100
AcDbLine
10
70.800000000000011
20
-11.239999999999998
30
0
11
70.800000000000011
21
-11.119999999999999
31
0
0
LINE
5
155
100
AcDbEntity
8
0
100
AcDbLine
10
70.800000000000011
20
-11.119999999999999
30
0
11
72.000000000000014
21
-11.120000000000001
31
0
0
LINE
5
156
100
AcDbEntity
8
0
100
AcDbLine
10
72.000000000000014
20
14.180000000000001
30
0
11
72.000000000000014
21
11.240000000000002
31
0
0
LINE
5
157
100
AcDbEntity
8
0
100
AcDbLine
10
72.000000000000014
20
11.120000000000001
30
0
11
72.000000000000014
21
0.060000000000002274
31
0
0
LINE
5
158
100
AcDbEntity
8
0
100
AcDbLine
10
72.000000000000014
20
-0.060000000000000053
30
0
11
72.000000000000014
21
-11.120000000000001
31
0
0
LINE
5
159
100
AcDbEntity
8
0
100
AcDbLine
10
72.000000000000014
20
-11.240000000000002
30
0
11
72.000000000000014
21
-13.179999999999996
31
0
0
LINE
5
160
100
AcDbEntity
8
0
100
AcDbLine
10
46.800000000000004
20
-11.239999999999998
30
0
11
47.940000000000005
21
-11.239999999999998
31
0
0
LINE
5
161
100
AcDbEntity
8
0
100
AcDbLine
10
48.060000000000009
20
-11.239999999999998
30
0
11
49.20000000000001
21
-11.239999999999998
31
0
0
LINE
5
162
100
AcDbEntity
8
0
100
AcDbLine
10
47.940000000000005
20
-13.179999999999996
30
0
11
47.940000000000005
21
-11.239999999999998
31
0
0
LINE
5
163
100
AcDbEntity
8
0
100
AcDbLine
10
48.060000000000009
20
-13.179999999999996
30
0
11
48.060000000000009
21
-11.239999999999998
31
0
0
LINE
5
164
100
AcDbEntity
8
0
100
AcDbLine
10
46.800000000000004
20
11.240000000000002
30
0
11
47.940000000000005
21
11.240000000000002
31
0
0
LINE
5
165
100
AcDbEntity
8
0
100
AcDbLine
10
48.060000000000009
20
11.240000000000002
30
0
11
49.20000000000001
21
11.240000000000002
31
0
0
LINE
5
166
100
AcDbEntity
8
0
100
AcDbLine
10
48.060000000000009
20
14.180000000000001
30
0
11
48.060000000000009
21
11.240000000000002
31
0
0
LINE
5
167
100
AcDbEntity
8
0
100
AcDbLine
10
47.940000000000005
20
14.180000000000001
30
0
11
47.940000000000005
21
11.240000000000002
31
0
0
LWPOLYLINE
5
168
100
AcDbEntity
8
0
100
AcDbPolyline
90
4
70
1
43
0.0
10
11.660000000000002
20
-0.31009227143336882
10
12.280000000000005
20
-0.31009227143336882
10
12.280000000000005
20
0.30990772856663112
10
11.660000000000002
20
0.30990772856663112
0
CIRCLE
5
169
100
AcDbEntity
8
0
100
AcDbCircle
10
36.000000000000007
20
0.00045055752961806195
30
0
40
0.30999999999999855
0
LWPOLYLINE
5
170
100
AcDbEntity
8
0
100
AcDbPolyline
90
4
70
1
43
0.0
10
60.230000000000018
20
0.32644888771675251
10
59.830000000000005
20
0.32644888771675251
10
59.830000000000005
20
0.22005568546672566
42
2.6180339887497994
10
60.230000000000018
20
0.22005568546672566
0
ENDSEC
0
SECTION
2
OBJECTS
0
DICTIONARY
5
C
100
AcDbDictionary
3
ACAD_GROUP
350
D
3
ACAD_MLINESTYLE
350
17
0
DICTIONARY
5
D
100
AcDbDictionary
0
DICTIONARY
5
1A
330
C
100
AcDbDictionary
0
DICTIONARY
5
17
100
AcDbDictionary
0
ENDSEC
0
EOF
